<?xml version="1.0" encoding="utf-8"?>
<!-- Generator: Adobe Illustrator 15.1.0, SVG Export Plug-In . SVG Version: 6.00 Build 0)  -->
<!DOCTYPE svg PUBLIC "-//W3C//DTD SVG 1.1//EN" "http://www.w3.org/Graphics/SVG/1.1/DTD/svg11.dtd" [
	<!ENTITY st0 "fill:none;stroke:#000000;stroke-width:3;stroke-linecap:round;stroke-linejoin:round;stroke-miterlimit:10;">
	<!ENTITY st1 "fill:none;stroke:#0686CC;stroke-width:3;stroke-linejoin:round;">
	<!ENTITY st2 "fill:none;stroke:#000000;stroke-miterlimit:10;">
	<!ENTITY st3 "fill:#FFFFFF;">
	<!ENTITY st4 "fill:none;stroke:#000000;stroke-width:3;stroke-linejoin:round;stroke-miterlimit:10;">
	<!ENTITY st5 "fill:#662D91;">
	<!ENTITY st6 "fill:#0686CC;">
	<!ENTITY st7 "fill:none;stroke:#662D91;stroke-width:3;stroke-linejoin:round;">
	<!ENTITY st8 "fill:none;stroke:#000000;stroke-width:3;stroke-linejoin:round;">
]>
<svg version="1.1" id="Layer_1" xmlns="http://www.w3.org/2000/svg" xmlns:xlink="http://www.w3.org/1999/xlink" x="0px" y="0px"
	 width="590.125px" height="417px" viewBox="0 0 590.125 417" style="enable-background:new 0 0 590.125 417;" xml:space="preserve"
	>
<g>
	<g>
		<rect x="245.142" y="60.437" style="&st6;" width="81.244" height="25.197"/>
		<g>
			<path style="&st3;" d="M259.477,77.143l-2.65-8.083h1.139l1.259,3.982c0.336,1.091,0.636,2.075,0.864,3.022h0.024
				c0.228-0.935,0.552-1.955,0.923-3.01l1.367-3.994h1.116l-2.891,8.083H259.477z"/>
			<path style="&st3;" d="M268.043,75.752c0,0.503,0.024,0.995,0.084,1.391h-0.947l-0.084-0.731h-0.035
				c-0.324,0.456-0.947,0.863-1.775,0.863c-1.176,0-1.775-0.828-1.775-1.667c0-1.403,1.248-2.171,3.49-2.159v-0.12
				c0-0.468-0.132-1.343-1.318-1.331c-0.553,0-1.116,0.156-1.523,0.432l-0.24-0.708c0.479-0.3,1.188-0.504,1.919-0.504
				c1.774,0,2.206,1.211,2.206,2.363V75.752z M267.023,74.181c-1.15-0.024-2.458,0.18-2.458,1.307c0,0.696,0.456,1.008,0.983,1.008
				c0.768,0,1.26-0.48,1.428-0.972c0.035-0.12,0.047-0.24,0.047-0.336V74.181z"/>
			<path style="&st3;" d="M273.827,75.752c0,0.503,0.024,0.995,0.084,1.391h-0.947l-0.084-0.731h-0.036
				c-0.324,0.456-0.947,0.863-1.775,0.863c-1.175,0-1.774-0.828-1.774-1.667c0-1.403,1.247-2.171,3.489-2.159v-0.12
				c0-0.468-0.131-1.343-1.318-1.331c-0.552,0-1.115,0.156-1.523,0.432l-0.24-0.708c0.48-0.3,1.188-0.504,1.92-0.504
				c1.774,0,2.206,1.211,2.206,2.363V75.752z M272.809,74.181c-1.152-0.024-2.459,0.18-2.459,1.307c0,0.696,0.455,1.008,0.982,1.008
				c0.768,0,1.26-0.48,1.428-0.972c0.036-0.12,0.049-0.24,0.049-0.336V74.181z"/>
			<path style="&st3;" d="M280.535,68.628v7.016c0,0.516,0.023,1.103,0.048,1.499h-0.936l-0.048-1.007h-0.036
				c-0.312,0.647-1.007,1.139-1.955,1.139c-1.403,0-2.495-1.188-2.495-2.95c-0.012-1.931,1.2-3.106,2.604-3.106
				c0.899,0,1.486,0.42,1.751,0.875h0.024v-3.466H280.535z M279.492,73.701c0-0.132-0.013-0.312-0.049-0.444
				c-0.156-0.66-0.731-1.211-1.523-1.211c-1.091,0-1.738,0.959-1.738,2.231c0,1.175,0.588,2.146,1.715,2.146
				c0.707,0,1.355-0.479,1.547-1.259c0.036-0.144,0.049-0.288,0.049-0.456V73.701z"/>
			<path style="&st3;" d="M283.477,69.707c0,0.36-0.252,0.648-0.672,0.648c-0.383,0-0.635-0.288-0.635-0.648s0.264-0.66,0.659-0.66
				C283.213,69.047,283.477,69.335,283.477,69.707z M282.301,77.143v-5.805h1.057v5.805H282.301z"/>
			<path style="&st3;" d="M285.109,72.909c0-0.611-0.012-1.091-0.048-1.571h0.936l0.06,0.959h0.024c0.288-0.54,0.96-1.08,1.919-1.08
				c0.803,0,2.051,0.48,2.051,2.471v3.454h-1.056v-3.346c0-0.936-0.348-1.715-1.343-1.715c-0.684,0-1.224,0.492-1.416,1.079
				c-0.047,0.132-0.071,0.312-0.071,0.492v3.49h-1.056V72.909z"/>
			<path style="&st3;" d="M300.514,76.783c-0.468,0.18-1.403,0.444-2.494,0.444c-1.225,0-2.231-0.312-3.023-1.067
				c-0.695-0.672-1.127-1.751-1.127-3.01c0-2.411,1.667-4.174,4.378-4.174c0.935,0,1.679,0.204,2.026,0.372l-0.264,0.852
				c-0.432-0.204-0.971-0.348-1.787-0.348c-1.967,0-3.25,1.223-3.25,3.25c0,2.051,1.223,3.262,3.118,3.262
				c0.684,0,1.151-0.096,1.392-0.216v-2.411h-1.631v-0.839h2.662V76.783z"/>
			<path style="&st3;" d="M302.064,73.149c0-0.684-0.012-1.271-0.047-1.811h0.923l0.048,1.151h0.036
				c0.264-0.78,0.911-1.271,1.619-1.271c0.108,0,0.192,0.012,0.288,0.024v0.996c-0.108-0.024-0.217-0.024-0.359-0.024
				c-0.744,0-1.271,0.552-1.416,1.343c-0.023,0.144-0.035,0.324-0.035,0.492v3.094h-1.057V73.149z"/>
			<path style="&st3;" d="M307.213,69.707c0,0.36-0.252,0.648-0.672,0.648c-0.384,0-0.636-0.288-0.636-0.648s0.264-0.66,0.659-0.66
				C306.949,69.047,307.213,69.335,307.213,69.707z M306.037,77.143v-5.805h1.056v5.805H306.037z"/>
			<path style="&st3;" d="M313.846,68.628v7.016c0,0.516,0.024,1.103,0.049,1.499h-0.936l-0.049-1.007h-0.035
				c-0.313,0.647-1.008,1.139-1.955,1.139c-1.403,0-2.495-1.188-2.495-2.95c-0.012-1.931,1.2-3.106,2.603-3.106
				c0.9,0,1.487,0.42,1.752,0.875h0.023v-3.466H313.846z M312.803,73.701c0-0.132-0.012-0.312-0.049-0.444
				c-0.155-0.66-0.73-1.211-1.522-1.211c-1.091,0-1.739,0.959-1.739,2.231c0,1.175,0.588,2.146,1.715,2.146
				c0.708,0,1.355-0.479,1.547-1.259c0.037-0.144,0.049-0.288,0.049-0.456V73.701z"/>
		</g>
	</g>
	<g>
		<rect x="306.287" y="97.437" style="&st6;" width="83.91" height="25.197"/>
		<g>
			<path style="&st3;" d="M320.996,106.059h4.354v0.875h-3.297v2.687h3.046v0.863h-3.046v3.658h-1.057V106.059z"/>
			<path style="&st3;" d="M327.68,106.707c0,0.36-0.252,0.648-0.671,0.648c-0.384,0-0.636-0.288-0.636-0.648s0.264-0.66,0.66-0.66
				C327.416,106.047,327.68,106.335,327.68,106.707z M326.505,114.143v-5.805h1.056v5.805H326.505z"/>
			<path style="&st3;" d="M329.313,105.627h1.057v8.515h-1.057V105.627z"/>
			<path style="&st3;" d="M332.732,111.432c0.023,1.427,0.924,2.015,1.99,2.015c0.756,0,1.224-0.132,1.607-0.3l0.191,0.756
				c-0.371,0.168-1.019,0.372-1.942,0.372c-1.787,0-2.854-1.188-2.854-2.938s1.031-3.118,2.723-3.118
				c1.907,0,2.398,1.655,2.398,2.723c0,0.216-0.012,0.372-0.035,0.492H332.732z M335.826,110.676
				c0.012-0.66-0.275-1.703-1.463-1.703c-1.079,0-1.535,0.971-1.619,1.703H335.826z"/>
			<path style="&st3;" d="M341.78,106.059v4.797c0,1.799,0.804,2.566,1.883,2.566c1.188,0,1.967-0.792,1.967-2.566v-4.797h1.056
				v4.725c0,2.483-1.308,3.49-3.059,3.49c-1.654,0-2.902-0.936-2.902-3.454v-4.761H341.78z"/>
			<path style="&st3;" d="M348.465,110.233c0-0.744-0.024-1.343-0.049-1.895h0.936l0.061,0.995h0.023
				c0.42-0.708,1.115-1.115,2.063-1.115c1.416,0,2.471,1.188,2.471,2.938c0,2.087-1.283,3.118-2.65,3.118
				c-0.768,0-1.439-0.336-1.787-0.912h-0.023v3.154h-1.043V110.233z M349.508,111.78c0,0.156,0.012,0.3,0.048,0.432
				c0.192,0.732,0.827,1.235,1.583,1.235c1.115,0,1.764-0.911,1.764-2.243c0-1.151-0.612-2.146-1.728-2.146
				c-0.72,0-1.403,0.503-1.595,1.295c-0.036,0.132-0.072,0.288-0.072,0.42V111.78z"/>
			<path style="&st3;" d="M355.292,105.627h1.056v8.515h-1.056V105.627z"/>
			<path style="&st3;" d="M363.377,111.192c0,2.146-1.499,3.082-2.891,3.082c-1.559,0-2.782-1.151-2.782-2.986
				c0-1.931,1.284-3.07,2.878-3.07C362.25,108.218,363.377,109.429,363.377,111.192z M358.783,111.252
				c0,1.271,0.721,2.231,1.752,2.231c1.007,0,1.763-0.947,1.763-2.255c0-0.983-0.491-2.219-1.739-2.219
				C359.323,109.009,358.783,110.161,358.783,111.252z"/>
			<path style="&st3;" d="M368.789,112.751c0,0.503,0.024,0.995,0.084,1.391h-0.947l-0.084-0.731h-0.035
				c-0.324,0.456-0.947,0.863-1.775,0.863c-1.176,0-1.775-0.828-1.775-1.667c0-1.403,1.248-2.171,3.49-2.159v-0.12
				c0-0.468-0.132-1.343-1.319-1.331c-0.552,0-1.115,0.156-1.522,0.432l-0.24-0.708c0.479-0.3,1.188-0.504,1.919-0.504
				c1.774,0,2.206,1.211,2.206,2.363V112.751z M367.771,111.18c-1.151-0.024-2.459,0.18-2.459,1.307
				c0,0.696,0.456,1.008,0.983,1.008c0.768,0,1.26-0.48,1.428-0.972c0.035-0.12,0.048-0.24,0.048-0.336V111.18z"/>
			<path style="&st3;" d="M375.498,105.627v7.016c0,0.516,0.023,1.103,0.047,1.499h-0.936l-0.047-1.007h-0.037
				c-0.312,0.647-1.007,1.139-1.955,1.139c-1.402,0-2.494-1.188-2.494-2.95c-0.012-1.931,1.199-3.106,2.603-3.106
				c0.899,0,1.487,0.42,1.751,0.875h0.024v-3.466H375.498z M374.454,110.701c0-0.132-0.013-0.312-0.048-0.444
				c-0.156-0.66-0.732-1.211-1.523-1.211c-1.092,0-1.739,0.959-1.739,2.231c0,1.175,0.588,2.146,1.716,2.146
				c0.707,0,1.354-0.479,1.547-1.259c0.035-0.144,0.048-0.288,0.048-0.456V110.701z"/>
		</g>
	</g>
	<g>
		<rect x="257.793" y="181.104" style="&st5;" width="83.911" height="25.197"/>
		<g>
			<path style="&st3;" d="M279.457,196.538c0.467,0.3,1.139,0.528,1.859,0.528c1.066,0,1.69-0.563,1.69-1.379
				c0-0.743-0.432-1.187-1.522-1.595c-1.32-0.48-2.135-1.176-2.135-2.303c0-1.259,1.043-2.195,2.613-2.195
				c0.816,0,1.428,0.192,1.775,0.396l-0.287,0.852c-0.252-0.156-0.792-0.384-1.523-0.384c-1.104,0-1.523,0.66-1.523,1.211
				c0,0.755,0.492,1.127,1.607,1.559c1.367,0.528,2.051,1.188,2.051,2.375c0,1.248-0.912,2.339-2.818,2.339
				c-0.779,0-1.631-0.24-2.063-0.528L279.457,196.538z"/>
			<path style="&st3;" d="M287.04,190.613h-2.459v-0.887h5.985v0.887h-2.471v7.196h-1.056V190.613z"/>
			<path style="&st3;" d="M293.46,190.613h-2.459v-0.887h5.985v0.887h-2.471v7.196h-1.056V190.613z"/>
			<path style="&st3;" d="M306.598,197.45c-0.469,0.18-1.404,0.444-2.495,0.444c-1.224,0-2.231-0.312-3.022-1.067
				c-0.695-0.672-1.127-1.751-1.127-3.01c0-2.411,1.666-4.174,4.377-4.174c0.936,0,1.68,0.204,2.027,0.372l-0.264,0.852
				c-0.432-0.204-0.972-0.348-1.787-0.348c-1.967,0-3.25,1.223-3.25,3.25c0,2.051,1.223,3.262,3.117,3.262
				c0.684,0,1.152-0.096,1.393-0.216v-2.411h-1.632v-0.839h2.663V197.45z"/>
			<path style="&st3;" d="M308.148,193.816c0-0.684-0.012-1.271-0.048-1.811h0.923l0.049,1.151h0.035
				c0.264-0.78,0.912-1.271,1.619-1.271c0.108,0,0.192,0.012,0.289,0.024v0.996c-0.109-0.024-0.217-0.024-0.36-0.024
				c-0.743,0-1.271,0.552-1.415,1.343c-0.024,0.144-0.036,0.324-0.036,0.492v3.094h-1.056V193.816z"/>
			<path style="&st3;" d="M313.295,190.374c0,0.36-0.252,0.648-0.671,0.648c-0.384,0-0.636-0.288-0.636-0.648s0.264-0.66,0.66-0.66
				C313.031,189.714,313.295,190.002,313.295,190.374z M312.12,197.81v-5.805h1.056v5.805H312.12z"/>
			<path style="&st3;" d="M319.93,189.294v7.016c0,0.516,0.023,1.103,0.048,1.499h-0.936l-0.048-1.007h-0.036
				c-0.312,0.647-1.007,1.139-1.955,1.139c-1.403,0-2.495-1.188-2.495-2.95c-0.012-1.931,1.2-3.106,2.604-3.106
				c0.899,0,1.486,0.42,1.751,0.875h0.024v-3.466H319.93z M318.887,194.368c0-0.132-0.013-0.312-0.049-0.444
				c-0.156-0.66-0.731-1.211-1.523-1.211c-1.091,0-1.738,0.959-1.738,2.231c0,1.175,0.588,2.146,1.715,2.146
				c0.707,0,1.355-0.479,1.547-1.259c0.036-0.144,0.049-0.288,0.049-0.456V194.368z"/>
		</g>
	</g>
	<g>
		<rect x="357.393" y="181.104" style="&st5;" width="87.379" height="25.197"/>
		<g>
			<path style="&st3;" d="M365.779,196.538c0.467,0.3,1.139,0.528,1.858,0.528c1.067,0,1.69-0.563,1.69-1.379
				c0-0.743-0.432-1.187-1.522-1.595c-1.319-0.48-2.135-1.176-2.135-2.303c0-1.259,1.043-2.195,2.614-2.195
				c0.815,0,1.428,0.192,1.775,0.396l-0.288,0.852c-0.252-0.156-0.792-0.384-1.523-0.384c-1.103,0-1.522,0.66-1.522,1.211
				c0,0.755,0.491,1.127,1.606,1.559c1.367,0.528,2.052,1.188,2.052,2.375c0,1.248-0.912,2.339-2.819,2.339
				c-0.779,0-1.631-0.24-2.063-0.528L365.779,196.538z"/>
			<path style="&st3;" d="M373.361,190.613h-2.459v-0.887h5.985v0.887h-2.471v7.196h-1.056V190.613z"/>
			<path style="&st3;" d="M379.781,190.613h-2.459v-0.887h5.985v0.887h-2.471v7.196h-1.056V190.613z"/>
			<path style="&st3;" d="M386.742,189.726h4.354v0.875h-3.298v2.687h3.046v0.863h-3.046v3.658h-1.056V189.726z"/>
			<path style="&st3;" d="M397.443,194.859c0,2.146-1.499,3.082-2.891,3.082c-1.559,0-2.782-1.151-2.782-2.986
				c0-1.931,1.284-3.07,2.878-3.07C396.316,191.885,397.443,193.096,397.443,194.859z M392.85,194.919
				c0,1.271,0.721,2.231,1.752,2.231c1.007,0,1.763-0.947,1.763-2.255c0-0.983-0.491-2.219-1.739-2.219
				C393.39,192.676,392.85,193.828,392.85,194.919z"/>
			<path style="&st3;" d="M398.778,193.816c0-0.684-0.012-1.271-0.048-1.811h0.924l0.047,1.151h0.037
				c0.264-0.78,0.911-1.271,1.619-1.271c0.107,0,0.191,0.012,0.287,0.024v0.996c-0.107-0.024-0.216-0.024-0.359-0.024
				c-0.744,0-1.271,0.552-1.416,1.343c-0.023,0.144-0.035,0.324-0.035,0.492v3.094h-1.056V193.816z"/>
			<path style="&st3;" d="M402.75,193.576c0-0.611-0.023-1.091-0.048-1.571h0.923l0.049,0.947h0.035
				c0.324-0.552,0.864-1.067,1.836-1.067c0.779,0,1.379,0.48,1.631,1.164h0.023c0.18-0.336,0.42-0.576,0.66-0.756
				c0.348-0.264,0.719-0.408,1.271-0.408c0.779,0,1.918,0.504,1.918,2.519v3.406h-1.031v-3.274c0-1.127-0.42-1.787-1.259-1.787
				c-0.612,0-1.067,0.443-1.259,0.947c-0.049,0.156-0.084,0.336-0.084,0.528v3.586h-1.032v-3.478c0-0.923-0.407-1.583-1.211-1.583
				c-0.647,0-1.14,0.527-1.308,1.055c-0.06,0.144-0.084,0.336-0.084,0.516v3.49h-1.031V193.576z"/>
			<path style="&st3;" d="M415.338,197.81v-8.083h1.152l2.578,4.09c0.588,0.947,1.067,1.799,1.439,2.626l0.035-0.012
				c-0.096-1.079-0.119-2.063-0.119-3.322v-3.382h0.982v8.083h-1.055l-2.566-4.102c-0.564-0.9-1.104-1.823-1.5-2.699l-0.035,0.012
				c0.06,1.019,0.072,1.991,0.072,3.334v3.454H415.338z"/>
			<path style="&st3;" d="M423.785,195.099c0.024,1.427,0.924,2.015,1.991,2.015c0.755,0,1.224-0.132,1.606-0.3l0.192,0.756
				c-0.372,0.168-1.019,0.372-1.942,0.372c-1.787,0-2.855-1.188-2.855-2.938s1.032-3.118,2.723-3.118
				c1.907,0,2.399,1.655,2.399,2.723c0,0.216-0.013,0.372-0.036,0.492H423.785z M426.88,194.343c0.012-0.66-0.276-1.703-1.464-1.703
				c-1.079,0-1.535,0.971-1.619,1.703H426.88z"/>
			<path style="&st3;" d="M429.63,192.005l0.779,2.95c0.156,0.647,0.312,1.248,0.42,1.847h0.036
				c0.132-0.588,0.324-1.211,0.516-1.835l0.947-2.962h0.888l0.899,2.902c0.216,0.695,0.384,1.307,0.516,1.895h0.036
				c0.096-0.588,0.252-1.2,0.444-1.883l0.827-2.914h1.044l-1.871,5.805h-0.96l-0.888-2.771c-0.203-0.647-0.371-1.223-0.516-1.907
				h-0.023c-0.145,0.695-0.324,1.295-0.528,1.919l-0.936,2.758h-0.96l-1.75-5.805H429.63z"/>
		</g>
	</g>
	<g>
		<rect x="461.482" y="181.104" style="&st5;" width="90.074" height="25.197"/>
		<g>
			<path style="&st3;" d="M472.885,196.538c0.467,0.3,1.139,0.528,1.858,0.528c1.067,0,1.69-0.563,1.69-1.379
				c0-0.743-0.432-1.187-1.522-1.595c-1.319-0.48-2.135-1.176-2.135-2.303c0-1.259,1.043-2.195,2.614-2.195
				c0.815,0,1.428,0.192,1.775,0.396l-0.288,0.852c-0.252-0.156-0.792-0.384-1.523-0.384c-1.103,0-1.522,0.66-1.522,1.211
				c0,0.755,0.491,1.127,1.606,1.559c1.367,0.528,2.052,1.188,2.052,2.375c0,1.248-0.912,2.339-2.819,2.339
				c-0.779,0-1.631-0.24-2.063-0.528L472.885,196.538z"/>
			<path style="&st3;" d="M480.467,190.613h-2.459v-0.887h5.985v0.887h-2.471v7.196h-1.056V190.613z"/>
			<path style="&st3;" d="M486.887,190.613h-2.459v-0.887h5.985v0.887h-2.471v7.196h-1.056V190.613z"/>
			<path style="&st3;" d="M493.848,189.726h4.354v0.875h-3.298v2.687h3.046v0.863h-3.046v3.658h-1.056V189.726z"/>
			<path style="&st3;" d="M504.549,194.859c0,2.146-1.499,3.082-2.891,3.082c-1.559,0-2.782-1.151-2.782-2.986
				c0-1.931,1.284-3.07,2.878-3.07C503.422,191.885,504.549,193.096,504.549,194.859z M499.955,194.919
				c0,1.271,0.721,2.231,1.752,2.231c1.007,0,1.763-0.947,1.763-2.255c0-0.983-0.491-2.219-1.739-2.219
				C500.495,192.676,499.955,193.828,499.955,194.919z"/>
			<path style="&st3;" d="M505.884,193.816c0-0.684-0.012-1.271-0.048-1.811h0.924l0.047,1.151h0.037
				c0.264-0.78,0.911-1.271,1.619-1.271c0.107,0,0.191,0.012,0.287,0.024v0.996c-0.107-0.024-0.216-0.024-0.359-0.024
				c-0.744,0-1.271,0.552-1.416,1.343c-0.023,0.144-0.035,0.324-0.035,0.492v3.094h-1.056V193.816z"/>
			<path style="&st3;" d="M509.855,193.576c0-0.611-0.023-1.091-0.048-1.571h0.923l0.049,0.947h0.035
				c0.324-0.552,0.864-1.067,1.836-1.067c0.779,0,1.379,0.48,1.631,1.164h0.023c0.18-0.336,0.42-0.576,0.66-0.756
				c0.348-0.264,0.719-0.408,1.271-0.408c0.779,0,1.918,0.504,1.918,2.519v3.406h-1.031v-3.274c0-1.127-0.42-1.787-1.259-1.787
				c-0.612,0-1.067,0.443-1.259,0.947c-0.049,0.156-0.084,0.336-0.084,0.528v3.586h-1.032v-3.478c0-0.923-0.407-1.583-1.211-1.583
				c-0.647,0-1.14,0.527-1.308,1.055c-0.06,0.144-0.084,0.336-0.084,0.516v3.49h-1.031V193.576z"/>
			<path style="&st3;" d="M526.617,194.02h-3.13v2.915h3.502v0.875h-4.558v-8.083h4.378v0.875h-3.322v2.555h3.13V194.02z"/>
			<path style="&st3;" d="M533.265,189.294v7.016c0,0.516,0.024,1.103,0.048,1.499h-0.936l-0.048-1.007h-0.036
				c-0.313,0.647-1.008,1.139-1.955,1.139c-1.402,0-2.494-1.188-2.494-2.95c-0.012-1.931,1.199-3.106,2.602-3.106
				c0.9,0,1.488,0.42,1.752,0.875h0.023v-3.466H533.265z M532.221,194.368c0-0.132-0.012-0.312-0.048-0.444
				c-0.155-0.66-0.731-1.211-1.522-1.211c-1.092,0-1.74,0.959-1.74,2.231c0,1.175,0.588,2.146,1.716,2.146
				c0.708,0,1.354-0.479,1.547-1.259c0.036-0.144,0.048-0.288,0.048-0.456V194.368z"/>
			<path style="&st3;" d="M536.207,190.374c0,0.36-0.252,0.648-0.672,0.648c-0.384,0-0.636-0.288-0.636-0.648s0.264-0.66,0.659-0.66
				C535.943,189.714,536.207,190.002,536.207,190.374z M535.031,197.81v-5.805h1.056v5.805H535.031z"/>
			<path style="&st3;" d="M539.111,190.613v1.392h1.511v0.803h-1.511v3.13c0,0.72,0.203,1.127,0.791,1.127
				c0.287,0,0.455-0.024,0.611-0.072l0.049,0.803c-0.205,0.072-0.528,0.144-0.936,0.144c-0.492,0-0.889-0.168-1.141-0.444
				c-0.287-0.324-0.407-0.839-0.407-1.523v-3.167h-0.899v-0.803h0.899v-1.08L539.111,190.613z"/>
		</g>
	</g>
	<g>
		<rect x="494.91" y="97.437" style="&st6;" width="53.245" height="25.197"/>
		<g>
			<path style="&st3;" d="M507.289,106.155c0.504-0.084,1.163-0.156,2.003-0.156c1.031,0,1.786,0.24,2.267,0.672
				c0.432,0.384,0.707,0.971,0.707,1.691c0,0.731-0.215,1.307-0.623,1.727c-0.564,0.587-1.451,0.888-2.471,0.888
				c-0.313,0-0.6-0.012-0.84-0.072v3.238h-1.043V106.155z M508.332,110.053c0.229,0.06,0.516,0.084,0.863,0.084
				c1.26,0,2.027-0.624,2.027-1.715c0-1.08-0.768-1.595-1.906-1.595c-0.457,0-0.805,0.036-0.984,0.084V110.053z"/>
			<path style="&st3;" d="M513.577,105.627h1.056v8.515h-1.056V105.627z"/>
			<path style="&st3;" d="M520.486,112.751c0,0.503,0.024,0.995,0.084,1.391h-0.947l-0.084-0.731h-0.035
				c-0.324,0.456-0.947,0.863-1.775,0.863c-1.176,0-1.775-0.828-1.775-1.667c0-1.403,1.248-2.171,3.49-2.159v-0.12
				c0-0.468-0.132-1.343-1.318-1.331c-0.553,0-1.116,0.156-1.523,0.432l-0.24-0.708c0.479-0.3,1.188-0.504,1.919-0.504
				c1.774,0,2.206,1.211,2.206,2.363V112.751z M519.467,111.18c-1.15-0.024-2.458,0.18-2.458,1.307c0,0.696,0.456,1.008,0.983,1.008
				c0.768,0,1.26-0.48,1.428-0.972c0.035-0.12,0.047-0.24,0.047-0.336V111.18z"/>
			<path style="&st3;" d="M522.48,108.338l1.26,3.43c0.144,0.384,0.287,0.839,0.383,1.187h0.024
				c0.108-0.348,0.228-0.792,0.372-1.211l1.151-3.406h1.115l-1.583,4.138c-0.756,1.991-1.271,2.998-1.991,3.634
				c-0.527,0.444-1.031,0.624-1.295,0.672l-0.265-0.875c0.265-0.084,0.612-0.252,0.924-0.516c0.288-0.228,0.636-0.635,0.888-1.175
				c0.048-0.108,0.084-0.192,0.084-0.251c0-0.06-0.024-0.144-0.084-0.276l-2.135-5.349H522.48z"/>
			<path style="&st3;" d="M528.217,111.432c0.023,1.427,0.924,2.015,1.99,2.015c0.756,0,1.224-0.132,1.607-0.3l0.191,0.756
				c-0.371,0.168-1.019,0.372-1.942,0.372c-1.787,0-2.854-1.188-2.854-2.938s1.031-3.118,2.723-3.118
				c1.906,0,2.398,1.655,2.398,2.723c0,0.216-0.012,0.372-0.035,0.492H528.217z M531.311,110.676
				c0.012-0.66-0.275-1.703-1.463-1.703c-1.08,0-1.535,0.971-1.619,1.703H531.311z"/>
			<path style="&st3;" d="M533.641,110.149c0-0.684-0.012-1.271-0.048-1.811h0.923l0.049,1.151h0.035
				c0.264-0.78,0.912-1.271,1.619-1.271c0.108,0,0.192,0.012,0.289,0.024v0.996c-0.109-0.024-0.217-0.024-0.36-0.024
				c-0.743,0-1.271,0.552-1.415,1.343c-0.024,0.144-0.036,0.324-0.036,0.492v3.094h-1.056V110.149z"/>
		</g>
	</g>
	<g>
		<rect x="380.741" y="60.437" style="&st6;" width="76.015" height="25.197"/>
		<g>
			<path style="&st3;" d="M400.012,69.179c0.635-0.108,1.391-0.18,2.219-0.18c1.498,0,2.566,0.36,3.273,1.007
				c0.732,0.66,1.151,1.595,1.151,2.902c0,1.319-0.419,2.399-1.163,3.143c-0.768,0.755-2.016,1.163-3.586,1.163
				c-0.756,0-1.367-0.036-1.895-0.096V69.179z M401.055,76.328c0.264,0.036,0.647,0.048,1.055,0.048c2.243,0,3.443-1.247,3.443-3.43
				c0.012-1.907-1.068-3.118-3.275-3.118c-0.539,0-0.947,0.048-1.223,0.108V76.328z"/>
			<path style="&st3;" d="M409.143,69.707c0,0.36-0.252,0.648-0.672,0.648c-0.384,0-0.636-0.288-0.636-0.648s0.264-0.66,0.659-0.66
				C408.879,69.047,409.143,69.335,409.143,69.707z M407.967,77.143v-5.805h1.056v5.805H407.967z"/>
			<path style="&st3;" d="M414.853,75.752c0,0.503,0.024,0.995,0.084,1.391h-0.947l-0.084-0.731h-0.036
				c-0.324,0.456-0.947,0.863-1.775,0.863c-1.175,0-1.774-0.828-1.774-1.667c0-1.403,1.247-2.171,3.489-2.159v-0.12
				c0-0.468-0.131-1.343-1.318-1.331c-0.552,0-1.115,0.156-1.523,0.432l-0.24-0.708c0.48-0.3,1.188-0.504,1.92-0.504
				c1.774,0,2.206,1.211,2.206,2.363V75.752z M413.833,74.181c-1.151-0.024-2.458,0.18-2.458,1.307c0,0.696,0.455,1.008,0.982,1.008
				c0.768,0,1.26-0.48,1.428-0.972c0.036-0.12,0.048-0.24,0.048-0.336V74.181z M414.361,68.832l-1.463,1.715h-0.744l1.043-1.715
				H414.361z"/>
			<path style="&st3;" d="M416.559,68.628h1.056v8.515h-1.056V68.628z"/>
			<path style="&st3;" d="M424.644,74.193c0,2.146-1.499,3.082-2.89,3.082c-1.56,0-2.783-1.151-2.783-2.986
				c0-1.931,1.283-3.07,2.879-3.07C423.517,71.218,424.644,72.43,424.644,74.193z M420.051,74.252c0,1.271,0.719,2.231,1.75,2.231
				c1.008,0,1.764-0.947,1.764-2.255c0-0.983-0.492-2.219-1.739-2.219C420.59,72.01,420.051,73.161,420.051,74.252z"/>
			<path style="&st3;" d="M430.943,76.292c0,1.343-0.275,2.147-0.827,2.663c-0.575,0.516-1.392,0.696-2.122,0.696
				c-0.696,0-1.464-0.168-1.932-0.48l0.264-0.815c0.384,0.252,0.983,0.468,1.703,0.468c1.08,0,1.871-0.564,1.871-2.039v-0.636
				h-0.023c-0.313,0.54-0.948,0.972-1.848,0.972c-1.439,0-2.471-1.223-2.471-2.831c0-1.967,1.283-3.07,2.627-3.07
				c1.008,0,1.547,0.516,1.811,0.996h0.024l0.036-0.875h0.936c-0.036,0.408-0.049,0.887-0.049,1.583V76.292z M429.889,73.629
				c0-0.18-0.012-0.336-0.061-0.468c-0.191-0.624-0.695-1.127-1.475-1.127c-1.008,0-1.728,0.852-1.728,2.195
				c0,1.14,0.588,2.087,1.716,2.087c0.659,0,1.246-0.408,1.463-1.079c0.06-0.18,0.084-0.384,0.084-0.564V73.629z"/>
			<path style="&st3;" d="M437.939,74.193c0,2.146-1.499,3.082-2.891,3.082c-1.559,0-2.782-1.151-2.782-2.986
				c0-1.931,1.284-3.07,2.878-3.07C436.813,71.218,437.939,72.43,437.939,74.193z M433.346,74.252c0,1.271,0.721,2.231,1.752,2.231
				c1.007,0,1.763-0.947,1.763-2.255c0-0.983-0.491-2.219-1.739-2.219C433.886,72.01,433.346,73.161,433.346,74.252z"/>
		</g>
	</g>
	<g>
		<rect x="91.198" y="97.437" style="&st6;" width="83.91" height="25.197"/>
		<g>
			<path style="&st3;" d="M101.03,106.154c0.503-0.084,1.163-0.156,2.003-0.156c1.031,0,1.787,0.24,2.267,0.672
				c0.432,0.384,0.708,0.971,0.708,1.691c0,0.731-0.216,1.307-0.624,1.727c-0.564,0.587-1.451,0.888-2.471,0.888
				c-0.312,0-0.6-0.012-0.839-0.072v3.238h-1.043V106.154z M102.073,110.052c0.228,0.06,0.516,0.084,0.863,0.084
				c1.259,0,2.027-0.624,2.027-1.715c0-1.08-0.768-1.595-1.907-1.595c-0.456,0-0.804,0.036-0.983,0.084V110.052z"/>
			<path style="&st3;" d="M112.331,111.192c0,2.146-1.499,3.082-2.89,3.082c-1.559,0-2.783-1.151-2.783-2.986
				c0-1.931,1.284-3.07,2.878-3.07C111.204,108.217,112.331,109.429,112.331,111.192z M107.737,111.251
				c0,1.271,0.72,2.231,1.751,2.231c1.007,0,1.763-0.947,1.763-2.255c0-0.983-0.492-2.219-1.739-2.219
				C108.277,109.009,107.737,110.16,107.737,111.251z"/>
			<path style="&st3;" d="M113.666,110.148c0-0.684-0.012-1.271-0.048-1.811h0.923l0.048,1.151h0.036
				c0.264-0.78,0.912-1.271,1.619-1.271c0.108,0,0.192,0.012,0.288,0.024v0.996c-0.108-0.024-0.216-0.024-0.36-0.024
				c-0.744,0-1.271,0.552-1.416,1.343c-0.024,0.144-0.036,0.324-0.036,0.492v3.094h-1.056V110.148z"/>
			<path style="&st3;" d="M119.149,106.946v1.392h1.511v0.803h-1.511v3.13c0,0.72,0.204,1.127,0.792,1.127
				c0.288,0,0.456-0.024,0.611-0.072l0.048,0.803c-0.204,0.072-0.528,0.144-0.936,0.144c-0.492,0-0.888-0.168-1.14-0.444
				c-0.288-0.324-0.408-0.839-0.408-1.523v-3.167h-0.899v-0.803h0.899v-1.08L119.149,106.946z"/>
			<path style="&st3;" d="M125.927,112.751c0,0.503,0.024,0.995,0.084,1.391h-0.947l-0.084-0.731h-0.036
				c-0.324,0.456-0.947,0.863-1.775,0.863c-1.175,0-1.775-0.828-1.775-1.667c0-1.403,1.247-2.171,3.49-2.159v-0.12
				c0-0.468-0.132-1.343-1.319-1.331c-0.552,0-1.116,0.156-1.523,0.432l-0.24-0.708c0.479-0.3,1.187-0.504,1.919-0.504
				c1.775,0,2.207,1.211,2.207,2.363V112.751z M124.907,111.18c-1.151-0.024-2.458,0.18-2.458,1.307
				c0,0.696,0.456,1.008,0.983,1.008c0.768,0,1.259-0.48,1.427-0.972c0.036-0.12,0.048-0.24,0.048-0.336V111.18z"/>
			<path style="&st3;" d="M127.633,105.627h1.056v8.515h-1.056V105.627z"/>
			<path style="&st3;" d="M133.033,106.059h1.056v7.208h3.454v0.875h-4.51V106.059z"/>
			<path style="&st3;" d="M142.75,112.751c0,0.503,0.024,0.995,0.084,1.391h-0.947l-0.084-0.731h-0.036
				c-0.324,0.456-0.947,0.863-1.775,0.863c-1.175,0-1.775-0.828-1.775-1.667c0-1.403,1.247-2.171,3.49-2.159v-0.12
				c0-0.468-0.132-1.343-1.319-1.331c-0.551,0-1.115,0.156-1.523,0.432l-0.24-0.708c0.479-0.3,1.188-0.504,1.919-0.504
				c1.775,0,2.207,1.211,2.207,2.363V112.751z M141.731,111.18c-1.151-0.024-2.459,0.18-2.459,1.307
				c0,0.696,0.456,1.008,0.983,1.008c0.768,0,1.259-0.48,1.427-0.972c0.036-0.12,0.048-0.24,0.048-0.336V111.18z"/>
			<path style="&st3;" d="M144.745,108.337l1.259,3.43c0.144,0.384,0.288,0.839,0.384,1.187h0.024
				c0.108-0.348,0.228-0.792,0.372-1.211l1.151-3.406h1.115l-1.583,4.138c-0.756,1.991-1.271,2.998-1.991,3.634
				c-0.527,0.444-1.031,0.624-1.295,0.672l-0.264-0.875c0.264-0.084,0.612-0.252,0.924-0.516c0.288-0.228,0.635-0.635,0.887-1.175
				c0.048-0.108,0.084-0.192,0.084-0.251c0-0.06-0.024-0.144-0.084-0.276l-2.135-5.349H144.745z"/>
			<path style="&st3;" d="M155.146,111.192c0,2.146-1.499,3.082-2.89,3.082c-1.559,0-2.783-1.151-2.783-2.986
				c0-1.931,1.284-3.07,2.878-3.07C154.019,108.217,155.146,109.429,155.146,111.192z M150.553,111.251
				c0,1.271,0.72,2.231,1.751,2.231c1.007,0,1.763-0.947,1.763-2.255c0-0.983-0.492-2.219-1.739-2.219
				C151.092,109.009,150.553,110.16,150.553,111.251z"/>
			<path style="&st3;" d="M161.338,112.547c0,0.612,0.012,1.14,0.048,1.595h-0.936l-0.06-0.947h-0.024
				c-0.264,0.468-0.887,1.079-1.919,1.079c-0.911,0-2.003-0.516-2.003-2.542v-3.394h1.056v3.202c0,1.104,0.348,1.859,1.295,1.859
				c0.708,0,1.199-0.492,1.391-0.971c0.06-0.144,0.096-0.336,0.096-0.54v-3.55h1.056V112.547z"/>
			<path style="&st3;" d="M164.364,106.946v1.392h1.511v0.803h-1.511v3.13c0,0.72,0.204,1.127,0.792,1.127
				c0.288,0,0.456-0.024,0.612-0.072l0.048,0.803c-0.204,0.072-0.528,0.144-0.936,0.144c-0.492,0-0.888-0.168-1.14-0.444
				c-0.288-0.324-0.408-0.839-0.408-1.523v-3.167h-0.899v-0.803h0.899v-1.08L164.364,106.946z"/>
		</g>
	</g>
	<g>
		<rect x="46.528" y="60.437" style="&st6;" width="58.576" height="25.197"/>
		<g>
			<path style="&st3;" d="M64.274,73.593c-0.06-1.127-0.132-2.495-0.132-3.49h-0.024c-0.288,0.936-0.612,1.955-1.02,3.07
				l-1.427,3.922H60.88l-1.319-3.85c-0.384-1.151-0.695-2.183-0.923-3.142h-0.024c-0.024,1.007-0.084,2.351-0.156,3.574
				l-0.216,3.466h-0.995l0.563-8.083h1.331l1.379,3.91c0.336,0.996,0.6,1.883,0.815,2.723h0.024
				c0.216-0.815,0.503-1.703,0.863-2.723l1.439-3.91h1.331l0.504,8.083h-1.032L64.274,73.593z"/>
			<path style="&st3;" d="M72.399,74.192c0,2.146-1.499,3.082-2.89,3.082c-1.559,0-2.783-1.151-2.783-2.986
				c0-1.931,1.284-3.07,2.878-3.07C71.272,71.218,72.399,72.429,72.399,74.192z M67.806,74.252c0,1.271,0.72,2.231,1.751,2.231
				c1.007,0,1.763-0.947,1.763-2.255c0-0.983-0.492-2.219-1.739-2.219C68.345,72.009,67.806,73.161,67.806,74.252z"/>
			<path style="&st3;" d="M78.735,68.627v7.016c0,0.516,0.024,1.103,0.048,1.499h-0.936L77.8,76.135h-0.036
				c-0.312,0.647-1.007,1.139-1.955,1.139c-1.403,0-2.495-1.188-2.495-2.95c-0.012-1.931,1.2-3.106,2.603-3.106
				c0.9,0,1.487,0.42,1.751,0.875h0.024v-3.466H78.735z M77.692,73.701c0-0.132-0.012-0.312-0.048-0.444
				c-0.156-0.66-0.731-1.211-1.523-1.211c-1.091,0-1.739,0.959-1.739,2.231c0,1.175,0.588,2.146,1.715,2.146
				c0.708,0,1.355-0.479,1.547-1.259c0.036-0.144,0.048-0.288,0.048-0.456V73.701z"/>
			<path style="&st3;" d="M85.359,75.547c0,0.612,0.012,1.14,0.048,1.595h-0.936l-0.06-0.947h-0.024
				c-0.264,0.468-0.887,1.079-1.919,1.079c-0.911,0-2.003-0.516-2.003-2.542v-3.394h1.056v3.202c0,1.104,0.348,1.859,1.295,1.859
				c0.708,0,1.199-0.492,1.391-0.971c0.06-0.144,0.096-0.336,0.096-0.54v-3.55h1.056V75.547z"/>
			<path style="&st3;" d="M87.114,68.627h1.056v8.515h-1.056V68.627z"/>
			<path style="&st3;" d="M90.534,74.432c0.024,1.427,0.923,2.015,1.991,2.015c0.755,0,1.223-0.132,1.607-0.3l0.192,0.756
				c-0.372,0.168-1.019,0.372-1.943,0.372c-1.787,0-2.854-1.188-2.854-2.938s1.032-3.118,2.723-3.118
				c1.907,0,2.399,1.655,2.399,2.723c0,0.216-0.012,0.372-0.036,0.492H90.534z M93.628,73.676c0.012-0.66-0.276-1.703-1.463-1.703
				c-1.079,0-1.535,0.971-1.619,1.703H93.628z"/>
		</g>
	</g>
	<g>
		<rect x="148.535" y="60.437" style="&st6;" width="83.91" height="25.197"/>
		<g>
			<path style="&st3;" d="M162.183,75.871c0.468,0.3,1.139,0.528,1.859,0.528c1.067,0,1.691-0.563,1.691-1.379
				c0-0.743-0.432-1.187-1.523-1.595c-1.319-0.48-2.135-1.176-2.135-2.303c0-1.259,1.043-2.195,2.615-2.195
				c0.815,0,1.427,0.192,1.775,0.396l-0.288,0.852c-0.252-0.156-0.792-0.384-1.523-0.384c-1.103,0-1.523,0.66-1.523,1.211
				c0,0.755,0.492,1.127,1.607,1.559c1.368,0.528,2.051,1.188,2.051,2.375c0,1.248-0.912,2.339-2.819,2.339
				c-0.779,0-1.631-0.24-2.063-0.528L162.183,75.871z"/>
			<path style="&st3;" d="M173.052,75.547c0,0.612,0.012,1.14,0.048,1.595h-0.936l-0.06-0.947h-0.024
				c-0.264,0.468-0.887,1.079-1.919,1.079c-0.911,0-2.003-0.516-2.003-2.542v-3.394h1.056v3.202c0,1.104,0.348,1.859,1.295,1.859
				c0.708,0,1.199-0.492,1.391-0.971c0.06-0.144,0.096-0.336,0.096-0.54v-3.55h1.056V75.547z"/>
			<path style="&st3;" d="M174.806,68.627h1.043v3.646h0.024c0.372-0.648,1.043-1.056,1.979-1.056c1.451,0,2.458,1.199,2.458,2.95
				c0,2.075-1.319,3.106-2.614,3.106c-0.84,0-1.511-0.324-1.955-1.079h-0.024l-0.06,0.947h-0.899
				c0.024-0.396,0.048-0.983,0.048-1.499V68.627z M175.85,74.816c0,0.132,0.012,0.264,0.048,0.384
				c0.192,0.731,0.815,1.235,1.583,1.235c1.116,0,1.763-0.899,1.763-2.231c0-1.163-0.6-2.159-1.739-2.159
				c-0.708,0-1.379,0.504-1.595,1.295c-0.036,0.132-0.06,0.276-0.06,0.443V74.816z"/>
			<path style="&st3;" d="M181.634,72.909c0-0.611-0.024-1.091-0.048-1.571h0.923l0.048,0.947h0.036
				c0.324-0.552,0.864-1.067,1.835-1.067c0.78,0,1.379,0.48,1.631,1.164h0.024c0.18-0.336,0.419-0.576,0.66-0.756
				c0.348-0.264,0.719-0.408,1.271-0.408c0.78,0,1.919,0.504,1.919,2.519v3.406h-1.031v-3.274c0-1.127-0.42-1.787-1.259-1.787
				c-0.612,0-1.067,0.443-1.259,0.947c-0.048,0.156-0.084,0.336-0.084,0.528v3.586h-1.031v-3.478c0-0.923-0.408-1.583-1.211-1.583
				c-0.648,0-1.14,0.527-1.308,1.055c-0.06,0.144-0.084,0.336-0.084,0.516v3.49h-1.031V72.909z"/>
			<path style="&st3;" d="M196.895,74.192c0,2.146-1.499,3.082-2.89,3.082c-1.559,0-2.783-1.151-2.783-2.986
				c0-1.931,1.284-3.07,2.878-3.07C195.768,71.218,196.895,72.429,196.895,74.192z M192.302,74.252c0,1.271,0.72,2.231,1.751,2.231
				c1.007,0,1.763-0.947,1.763-2.255c0-0.983-0.492-2.219-1.739-2.219C192.841,72.009,192.302,73.161,192.302,74.252z"/>
			<path style="&st3;" d="M203.231,68.627v7.016c0,0.516,0.024,1.103,0.048,1.499h-0.936l-0.048-1.007h-0.036
				c-0.312,0.647-1.007,1.139-1.955,1.139c-1.403,0-2.495-1.188-2.495-2.95c-0.012-1.931,1.2-3.106,2.603-3.106
				c0.9,0,1.487,0.42,1.751,0.875h0.024v-3.466H203.231z M202.188,73.701c0-0.132-0.012-0.312-0.048-0.444
				c-0.156-0.66-0.731-1.211-1.523-1.211c-1.091,0-1.739,0.959-1.739,2.231c0,1.175,0.588,2.146,1.715,2.146
				c0.708,0,1.355-0.479,1.547-1.259c0.036-0.144,0.048-0.288,0.048-0.456V73.701z"/>
			<path style="&st3;" d="M209.855,75.547c0,0.612,0.012,1.14,0.048,1.595h-0.936l-0.06-0.947h-0.024
				c-0.264,0.468-0.887,1.079-1.919,1.079c-0.911,0-2.003-0.516-2.003-2.542v-3.394h1.056v3.202c0,1.104,0.348,1.859,1.295,1.859
				c0.708,0,1.199-0.492,1.391-0.971c0.06-0.144,0.096-0.336,0.096-0.54v-3.55h1.056V75.547z"/>
			<path style="&st3;" d="M211.61,68.627h1.056v8.515h-1.056V68.627z"/>
			<path style="&st3;" d="M215.03,74.432c0.024,1.427,0.923,2.015,1.991,2.015c0.755,0,1.223-0.132,1.607-0.3l0.192,0.756
				c-0.372,0.168-1.019,0.372-1.943,0.372c-1.787,0-2.854-1.188-2.854-2.938s1.032-3.118,2.723-3.118
				c1.907,0,2.399,1.655,2.399,2.723c0,0.216-0.012,0.372-0.036,0.492H215.03z M218.124,73.676c0.012-0.66-0.276-1.703-1.463-1.703
				c-1.08,0-1.535,0.971-1.619,1.703H218.124z"/>
		</g>
	</g>
	<line style="&st2;" x1="14.578" y1="135.309" x2="575.547" y2="135.309"/>
	<g>
		<polygon style="&st0;" points="396.482,275.357 396.482,258.642 379.767,275.357 		"/>
		<polyline style="&st4;" points="424.688,281.833 424.688,258.642 396.482,258.642 379.767,275.357 379.767,315.055 
			424.688,315.055 424.688,301.16 		"/>
		<g>
			<path d="M391.126,290.631c0-0.765-0.029-1.365-0.06-1.965h1.154l0.061,1.185h0.045c0.405-0.689,1.08-1.335,2.295-1.335
				c0.975,0,1.725,0.601,2.04,1.455h0.03c0.225-0.42,0.524-0.72,0.824-0.944c0.436-0.33,0.9-0.511,1.59-0.511
				c0.976,0,2.4,0.631,2.4,3.15v4.26h-1.29v-4.095c0-1.41-0.525-2.235-1.575-2.235c-0.765,0-1.335,0.556-1.574,1.186
				c-0.061,0.194-0.105,0.42-0.105,0.66v4.484h-1.29v-4.35c0-1.155-0.51-1.98-1.515-1.98c-0.811,0-1.425,0.66-1.635,1.32
				c-0.075,0.18-0.105,0.42-0.105,0.645v4.365h-1.29V290.631z"/>
			<path d="M410.206,292.236c0,2.685-1.875,3.854-3.615,3.854c-1.95,0-3.479-1.44-3.479-3.735c0-2.414,1.604-3.84,3.6-3.84
				C408.796,288.516,410.206,290.031,410.206,292.236z M404.461,292.311c0,1.59,0.9,2.79,2.189,2.79
				c1.261,0,2.205-1.185,2.205-2.819c0-1.23-0.614-2.775-2.175-2.775C405.136,289.506,404.461,290.946,404.461,292.311z"/>
			<path d="M418.126,285.276v8.774c0,0.646,0.03,1.38,0.061,1.875h-1.171l-0.06-1.26h-0.045c-0.39,0.81-1.26,1.425-2.445,1.425
				c-1.755,0-3.119-1.485-3.119-3.689c-0.016-2.415,1.5-3.886,3.255-3.886c1.125,0,1.859,0.525,2.189,1.096h0.03v-4.335H418.126z
				 M416.821,291.621c0-0.165-0.016-0.39-0.061-0.555c-0.194-0.825-0.915-1.516-1.904-1.516c-1.365,0-2.175,1.2-2.175,2.79
				c0,1.47,0.734,2.685,2.145,2.685c0.885,0,1.695-0.6,1.935-1.574c0.045-0.181,0.061-0.36,0.061-0.57V291.621z"/>
			<path d="M426.406,293.931c0,0.766,0.015,1.425,0.06,1.995h-1.17l-0.075-1.185h-0.029c-0.33,0.585-1.11,1.35-2.4,1.35
				c-1.14,0-2.505-0.645-2.505-3.18v-4.245h1.32v4.005c0,1.38,0.435,2.325,1.62,2.325c0.885,0,1.5-0.615,1.739-1.215
				c0.075-0.181,0.12-0.42,0.12-0.676v-4.439h1.32V293.931z"/>
			<path d="M428.596,285.276h1.32v10.649h-1.32V285.276z"/>
			<path d="M432.871,292.536c0.03,1.785,1.155,2.52,2.49,2.52c0.944,0,1.529-0.165,2.01-0.375l0.239,0.945
				c-0.465,0.21-1.274,0.465-2.43,0.465c-2.234,0-3.569-1.485-3.569-3.675c0-2.19,1.29-3.9,3.404-3.9c2.385,0,3,2.07,3,3.405
				c0,0.271-0.015,0.465-0.045,0.615H432.871z M436.741,291.591c0.015-0.825-0.346-2.13-1.83-2.13c-1.351,0-1.92,1.215-2.025,2.13
				H436.741z"/>
			<path d="M443.131,291.396v0.96h-3.705v-0.96H443.131z"/>
			<path d="M444.496,294.591c0.405,0.24,1.095,0.51,1.755,0.51c0.945,0,1.395-0.465,1.395-1.08c0-0.63-0.375-0.96-1.335-1.319
				c-1.319-0.48-1.935-1.186-1.935-2.056c0-1.17,0.96-2.13,2.505-2.13c0.735,0,1.38,0.195,1.77,0.45l-0.314,0.96
				c-0.285-0.18-0.81-0.435-1.485-0.435c-0.779,0-1.199,0.45-1.199,0.99c0,0.6,0.42,0.869,1.364,1.244
				c1.245,0.466,1.905,1.096,1.905,2.175c0,1.29-1.005,2.19-2.7,2.19c-0.795,0-1.529-0.21-2.04-0.51L444.496,294.591z"/>
			<path d="M452.205,286.926v1.74h1.891v1.005h-1.891v3.915c0,0.899,0.255,1.41,0.99,1.41c0.36,0,0.57-0.03,0.765-0.09l0.061,1.005
				c-0.255,0.09-0.66,0.18-1.17,0.18c-0.615,0-1.11-0.21-1.425-0.555c-0.36-0.405-0.511-1.051-0.511-1.905v-3.96h-1.125v-1.005
				h1.125v-1.35L452.205,286.926z"/>
			<path d="M457.17,286.926v1.74h1.891v1.005h-1.891v3.915c0,0.899,0.255,1.41,0.99,1.41c0.36,0,0.57-0.03,0.765-0.09l0.061,1.005
				c-0.255,0.09-0.66,0.18-1.17,0.18c-0.615,0-1.11-0.21-1.425-0.555c-0.36-0.405-0.511-1.051-0.511-1.905v-3.96h-1.125v-1.005
				h1.125v-1.35L457.17,286.926z"/>
			<path d="M460.186,295.146c0-0.54,0.375-0.944,0.899-0.944c0.525,0,0.885,0.39,0.885,0.944c0,0.54-0.359,0.945-0.914,0.945
				C460.545,296.091,460.186,295.686,460.186,295.146z"/>
			<path d="M463.605,285.276h1.32v4.545h0.03c0.21-0.375,0.54-0.721,0.944-0.945c0.391-0.225,0.855-0.36,1.351-0.36
				c0.975,0,2.534,0.601,2.534,3.091v4.319h-1.319v-4.17c0-1.17-0.436-2.145-1.681-2.145c-0.854,0-1.515,0.6-1.77,1.305
				c-0.075,0.195-0.09,0.39-0.09,0.63v4.38h-1.32V285.276z"/>
			<path d="M473.46,286.926v1.74h1.891v1.005h-1.891v3.915c0,0.899,0.255,1.41,0.99,1.41c0.36,0,0.57-0.03,0.765-0.09l0.061,1.005
				c-0.255,0.09-0.66,0.18-1.17,0.18c-0.615,0-1.11-0.21-1.425-0.555c-0.36-0.405-0.511-1.051-0.511-1.905v-3.96h-1.125v-1.005
				h1.125v-1.35L473.46,286.926z"/>
			<path d="M476.835,290.631c0-0.765-0.029-1.365-0.06-1.965h1.154l0.061,1.185h0.045c0.405-0.689,1.08-1.335,2.295-1.335
				c0.975,0,1.725,0.601,2.04,1.455h0.03c0.225-0.42,0.524-0.72,0.824-0.944c0.436-0.33,0.9-0.511,1.59-0.511
				c0.976,0,2.4,0.631,2.4,3.15v4.26h-1.29v-4.095c0-1.41-0.525-2.235-1.575-2.235c-0.765,0-1.335,0.556-1.574,1.186
				c-0.061,0.194-0.105,0.42-0.105,0.66v4.484h-1.29v-4.35c0-1.155-0.51-1.98-1.515-1.98c-0.811,0-1.425,0.66-1.635,1.32
				c-0.075,0.18-0.105,0.42-0.105,0.645v4.365h-1.29V290.631z"/>
			<path d="M489.345,285.276h1.32v10.649h-1.32V285.276z"/>
		</g>
	</g>
	<g>
		<polygon style="&st0;" points="396.482,364.154 396.482,347.439 379.767,364.154 		"/>
		<polyline style="&st4;" points="424.688,370.631 424.688,347.439 396.482,347.439 379.767,364.154 379.767,403.852 
			424.688,403.852 424.688,389.958 		"/>
		<g>
			<path d="M391.126,379.428c0-0.765-0.029-1.365-0.06-1.965h1.154l0.061,1.185h0.045c0.405-0.689,1.08-1.335,2.295-1.335
				c0.975,0,1.725,0.601,2.04,1.455h0.03c0.225-0.42,0.524-0.72,0.824-0.944c0.436-0.33,0.9-0.511,1.59-0.511
				c0.976,0,2.4,0.631,2.4,3.15v4.26h-1.29v-4.095c0-1.41-0.525-2.235-1.575-2.235c-0.765,0-1.335,0.556-1.574,1.186
				c-0.061,0.194-0.105,0.42-0.105,0.66v4.484h-1.29v-4.35c0-1.155-0.51-1.98-1.515-1.98c-0.811,0-1.425,0.66-1.635,1.32
				c-0.075,0.18-0.105,0.42-0.105,0.645v4.365h-1.29V379.428z"/>
			<path d="M408.735,382.982c0,0.63,0.03,1.245,0.105,1.74h-1.185l-0.105-0.915h-0.045c-0.405,0.57-1.185,1.08-2.22,1.08
				c-1.47,0-2.22-1.035-2.22-2.085c0-1.755,1.56-2.715,4.364-2.7v-0.149c0-0.585-0.165-1.681-1.649-1.665
				c-0.69,0-1.396,0.195-1.905,0.54l-0.3-0.885c0.6-0.375,1.484-0.631,2.399-0.631c2.22,0,2.76,1.516,2.76,2.955V382.982z
				 M407.461,381.018c-1.44-0.029-3.075,0.226-3.075,1.635c0,0.87,0.57,1.261,1.23,1.261c0.96,0,1.574-0.601,1.784-1.216
				c0.046-0.149,0.061-0.3,0.061-0.42V381.018z"/>
			<path d="M412.336,375.423c0,0.45-0.314,0.811-0.84,0.811c-0.479,0-0.795-0.36-0.795-0.811s0.33-0.825,0.825-0.825
				C412.007,374.598,412.336,374.958,412.336,375.423z M410.866,384.723v-7.26h1.32v7.26H410.866z"/>
			<path d="M414.376,379.428c0-0.765-0.015-1.365-0.06-1.965h1.17l0.075,1.2h0.029c0.36-0.675,1.2-1.351,2.4-1.351
				c1.005,0,2.564,0.601,2.564,3.091v4.319h-1.319v-4.185c0-1.17-0.436-2.146-1.681-2.146c-0.854,0-1.529,0.615-1.77,1.351
				c-0.06,0.165-0.09,0.39-0.09,0.614v4.365h-1.32V379.428z"/>
			<path d="M422.386,383.942c0-0.54,0.375-0.944,0.899-0.944c0.525,0,0.885,0.39,0.885,0.944c0,0.54-0.359,0.945-0.914,0.945
				C422.745,384.888,422.386,384.482,422.386,383.942z"/>
			<path d="M425.806,374.073h1.32v4.545h0.03c0.21-0.375,0.54-0.721,0.944-0.945c0.391-0.225,0.855-0.36,1.351-0.36
				c0.975,0,2.534,0.601,2.534,3.091v4.319h-1.319v-4.17c0-1.17-0.436-2.145-1.681-2.145c-0.854,0-1.515,0.6-1.77,1.305
				c-0.075,0.195-0.09,0.39-0.09,0.63v4.38h-1.32V374.073z"/>
			<path d="M435.66,375.723v1.74h1.891v1.005h-1.891v3.915c0,0.899,0.255,1.41,0.99,1.41c0.36,0,0.57-0.03,0.765-0.09l0.061,1.005
				c-0.255,0.09-0.66,0.18-1.17,0.18c-0.615,0-1.11-0.21-1.425-0.555c-0.36-0.405-0.511-1.051-0.511-1.905v-3.96h-1.125v-1.005
				h1.125v-1.35L435.66,375.723z"/>
			<path d="M439.035,379.428c0-0.765-0.029-1.365-0.06-1.965h1.154l0.061,1.185h0.045c0.405-0.689,1.08-1.335,2.295-1.335
				c0.975,0,1.725,0.601,2.04,1.455h0.03c0.225-0.42,0.524-0.72,0.824-0.944c0.436-0.33,0.9-0.511,1.59-0.511
				c0.976,0,2.4,0.631,2.4,3.15v4.26h-1.29v-4.095c0-1.41-0.525-2.235-1.575-2.235c-0.765,0-1.335,0.556-1.574,1.186
				c-0.061,0.194-0.105,0.42-0.105,0.66v4.484h-1.29v-4.35c0-1.155-0.51-1.98-1.515-1.98c-0.811,0-1.425,0.66-1.635,1.32
				c-0.075,0.18-0.105,0.42-0.105,0.645v4.365h-1.29V379.428z"/>
			<path d="M451.545,374.073h1.32v10.649h-1.32V374.073z"/>
		</g>
	</g>
	<g>
		<g>
			<line style="&st1;" x1="285.764" y1="171.645" x2="285.764" y2="85.634"/>
			<g>
				<polygon style="&st6;" points="290.226,170.332 285.739,178.104 281.251,170.332 				"/>
			</g>
		</g>
	</g>
	<g>
		<g>
			<polyline style="&st1;" points="366.45,280.273 190.49,280.273 190.49,85.634 			"/>
			<g>
				<polygon style="&st6;" points="365.138,275.811 372.909,280.298 365.138,284.786 				"/>
			</g>
		</g>
	</g>
	<g>
		<g>
			<polyline style="&st1;" points="366.45,294.063 133.153,294.063 133.153,122.634 			"/>
			<g>
				<polygon style="&st6;" points="365.138,289.601 372.909,294.087 365.138,298.575 				"/>
			</g>
		</g>
	</g>
	<g>
		<g>
			<polyline style="&st1;" points="366.45,308.046 75.816,308.046 75.816,85.634 			"/>
			<g>
				<polygon style="&st6;" points="365.138,303.584 372.909,308.07 365.138,312.559 				"/>
			</g>
		</g>
	</g>
	<g>
		<g>
			<polyline style="&st7;" points="396.607,245.518 396.608,224.644 299.749,224.644 299.749,206.301 			"/>
			<g>
				<polygon style="&st5;" points="401.07,244.205 396.583,251.977 392.096,244.205 				"/>
			</g>
		</g>
	</g>
	<g>
		<g>
			<polyline style="&st7;" points="424.823,245.518 424.822,224.644 501.941,224.644 501.941,206.301 			"/>
			<g>
				<polygon style="&st5;" points="429.285,244.205 424.799,251.977 420.311,244.205 				"/>
			</g>
		</g>
	</g>
	<g>
		<g>
			<line style="&st7;" x1="410.715" y1="245.518" x2="410.716" y2="206.301"/>
			<g>
				<polygon style="&st5;" points="415.178,244.205 410.69,251.977 406.203,244.205 				"/>
			</g>
		</g>
	</g>
	<g>
		<g>
			<line style="&st8;" x1="410.716" y1="334.975" x2="410.716" y2="315.055"/>
			<g>
				<polygon points="415.178,333.662 410.691,341.434 406.203,333.662 				"/>
			</g>
		</g>
	</g>
	<g>
		<g>
			<polyline style="&st1;" points="386.519,171.645 386.519,149.091 348.242,149.091 348.242,122.634 			"/>
			<g>
				<polygon style="&st6;" points="390.98,170.332 386.494,178.104 382.006,170.332 				"/>
			</g>
		</g>
	</g>
	<g>
		<g>
			<polyline style="&st1;" points="491.404,171.646 491.048,149.091 433.727,149.091 433.727,85.634 			"/>
			<g>
				<polygon style="&st6;" points="495.846,170.262 491.482,178.104 486.872,170.404 				"/>
			</g>
		</g>
	</g>
	<g>
		<g>
			<line style="&st1;" x1="418.75" y1="171.645" x2="418.748" y2="85.634"/>
			<g>
				<polygon style="&st6;" points="423.212,170.332 418.726,178.104 414.237,170.332 				"/>
			</g>
		</g>
	</g>
	<g>
		<g>
			<line style="&st1;" x1="521.532" y1="171.645" x2="521.532" y2="122.634"/>
			<g>
				<polygon style="&st6;" points="525.994,170.332 521.508,178.104 517.02,170.332 				"/>
			</g>
		</g>
	</g>
	<g>
		<g>
			<polyline style="&st1;" points="313.733,171.645 313.733,161.521 403.313,161.521 403.313,85.634 			"/>
			<g>
				<polygon style="&st6;" points="318.195,170.332 313.709,178.104 309.221,170.332 				"/>
			</g>
		</g>
	</g>
	<g>
		<path d="M16.472,178.446c1.071,0.631,2.745,1.18,4.475,1.18c2.141,0,3.349-1.016,3.349-2.525c0-1.4-0.933-2.224-3.267-3.075
			c-3.074-1.098-5.023-2.717-5.023-5.38c0-3.047,2.526-5.326,6.561-5.326c2.004,0,3.458,0.439,4.419,0.934l-0.796,2.717
			c-0.687-0.357-1.977-0.878-3.706-0.878c-2.141,0-3.047,1.125-3.047,2.224c0,1.427,1.07,2.086,3.541,3.047
			c3.212,1.208,4.749,2.828,4.749,5.49c0,2.992-2.251,5.572-7,5.572c-1.977,0-4.008-0.549-5.023-1.18L16.472,178.446z"/>
		<path d="M34.315,166.45h-5.271v-2.827h13.972v2.827h-5.325v15.674h-3.376V166.45z"/>
		<path d="M49.522,166.45h-5.271v-2.827h13.972v2.827h-5.325v15.674h-3.376V166.45z"/>
	</g>
	<g>
		<path d="M19.519,36.125l-4.529-18.501h3.596l1.757,8.399c0.467,2.251,0.906,4.612,1.208,6.451h0.055
			c0.302-1.949,0.824-4.145,1.345-6.479l2.004-8.372h3.541l1.839,8.509c0.439,2.196,0.851,4.255,1.125,6.259h0.055
			c0.33-2.031,0.769-4.145,1.263-6.423l1.921-8.345h3.432l-4.996,18.501h-3.596l-1.921-8.702c-0.467-2.114-0.796-3.871-1.043-5.875
			h-0.055c-0.302,1.977-0.659,3.761-1.208,5.875l-2.142,8.702H19.519z"/>
		<path d="M50.73,27.917h-6.973v5.435h7.796v2.772H40.381V17.623h10.76v2.772h-7.384v4.776h6.973V27.917z"/>
		<path d="M54.519,17.897c1.07-0.22,3.02-0.412,4.941-0.412c2.471,0,4.035,0.33,5.271,1.181c1.153,0.686,1.921,1.894,1.921,3.486
			c0,1.702-1.07,3.239-3.074,3.98v0.083c1.949,0.494,3.733,2.031,3.733,4.557c0,1.647-0.713,2.938-1.757,3.843
			c-1.317,1.125-3.486,1.702-6.89,1.702c-1.867,0-3.267-0.138-4.145-0.247V17.897z M57.867,25.199h1.729
			c2.361,0,3.651-1.098,3.651-2.663c0-1.757-1.317-2.553-3.458-2.553c-0.988,0-1.565,0.055-1.922,0.137V25.199z M57.867,33.682
			c0.439,0.082,1.016,0.082,1.784,0.082c2.169,0,4.118-0.796,4.118-3.074c0-2.169-1.894-3.047-4.227-3.047h-1.675V33.682z"/>
		<path d="M89.271,35.603c-0.796,0.384-2.553,0.823-4.804,0.823c-5.875,0-9.443-3.678-9.443-9.333c0-6.094,4.255-9.772,9.91-9.772
			c2.223,0,3.788,0.467,4.474,0.824l-0.713,2.69c-0.878-0.384-2.114-0.714-3.624-0.714c-3.761,0-6.479,2.361-6.479,6.808
			c0,4.09,2.361,6.67,6.451,6.67c1.345,0,2.772-0.274,3.678-0.659L89.271,35.603z"/>
		<path d="M107.855,26.682c0,6.204-3.761,9.745-8.839,9.745c-5.243,0-8.537-4.008-8.537-9.416c0-5.709,3.596-9.717,8.812-9.717
			C104.671,17.293,107.855,21.384,107.855,26.682z M94.047,26.929c0,3.788,1.894,6.78,5.133,6.78c3.267,0,5.106-3.047,5.106-6.917
			c0-3.486-1.729-6.78-5.106-6.78C95.832,20.011,94.047,23.113,94.047,26.929z"/>
		<path d="M126.385,28.576c-0.11-2.388-0.247-5.271-0.22-7.769h-0.082c-0.604,2.251-1.373,4.749-2.196,7.082l-2.718,8.016h-2.58
			l-2.471-7.906c-0.713-2.361-1.373-4.886-1.867-7.192h-0.055c-0.083,2.416-0.192,5.353-0.33,7.878l-0.412,7.439h-3.157
			l1.235-18.501h4.447l2.416,7.439c0.659,2.168,1.235,4.365,1.702,6.423h0.083c0.494-2.004,1.125-4.282,1.839-6.451l2.553-7.412
			h4.392l1.07,18.501h-3.294L126.385,28.576z"/>
		<path d="M133.467,17.87c1.235-0.22,2.91-0.385,5.161-0.385c2.47,0,4.255,0.522,5.435,1.51c1.098,0.906,1.812,2.361,1.812,4.09
			c0,1.757-0.549,3.184-1.564,4.172c-1.373,1.345-3.459,2.004-5.847,2.004c-0.631,0-1.18-0.027-1.647-0.137v7h-3.349V17.87z
			 M136.816,26.462c0.439,0.137,0.961,0.165,1.647,0.165c2.525,0,4.063-1.263,4.063-3.404c0-2.059-1.428-3.129-3.761-3.129
			c-0.934,0-1.592,0.083-1.949,0.165V26.462z"/>
		<path d="M165.227,26.682c0,6.204-3.761,9.745-8.839,9.745c-5.243,0-8.537-4.008-8.537-9.416c0-5.709,3.596-9.717,8.812-9.717
			C162.043,17.293,165.227,21.384,165.227,26.682z M151.419,26.929c0,3.788,1.894,6.78,5.133,6.78c3.267,0,5.106-3.047,5.106-6.917
			c0-3.486-1.729-6.78-5.106-6.78C153.204,20.011,151.419,23.113,151.419,26.929z"/>
		<path d="M168.11,36.125V17.623h3.871l4.776,7.933c1.208,2.059,2.306,4.2,3.157,6.204h0.055c-0.247-2.47-0.302-4.858-0.302-7.686
			v-6.451h3.129v18.501h-3.514l-4.831-8.153c-1.181-2.031-2.388-4.282-3.294-6.369l-0.11,0.028c0.137,2.388,0.192,4.831,0.192,7.878
			v6.616H168.11z"/>
		<path d="M197.043,27.917h-6.973v5.435h7.796v2.772h-11.172V17.623h10.76v2.772h-7.384v4.776h6.973V27.917z"/>
		<path d="M200.804,36.125V17.623h3.871l4.776,7.933c1.208,2.059,2.306,4.2,3.157,6.204h0.055c-0.247-2.47-0.302-4.858-0.302-7.686
			v-6.451h3.129v18.501h-3.514l-4.831-8.153c-1.181-2.031-2.388-4.282-3.294-6.369l-0.11,0.028c0.137,2.388,0.192,4.831,0.192,7.878
			v6.616H200.804z"/>
		<path d="M222.929,20.45h-5.271v-2.827h13.972v2.827h-5.325v15.674h-3.376V20.45z"/>
		<path d="M233.525,32.446c1.071,0.631,2.745,1.18,4.475,1.18c2.141,0,3.349-1.016,3.349-2.525c0-1.4-0.933-2.224-3.267-3.075
			c-3.074-1.098-5.023-2.717-5.023-5.38c0-3.047,2.526-5.326,6.561-5.326c2.004,0,3.458,0.439,4.419,0.934l-0.796,2.717
			c-0.687-0.357-1.977-0.878-3.706-0.878c-2.141,0-3.047,1.125-3.047,2.224c0,1.427,1.07,2.086,3.541,3.047
			c3.212,1.208,4.749,2.828,4.749,5.49c0,2.992-2.251,5.572-7,5.572c-1.977,0-4.008-0.549-5.023-1.18L233.525,32.446z"/>
	</g>
</g>
</svg>
